<?xml version="1.0" encoding="utf-8"?>
<!-- Generator: Adobe Illustrator 16.0.0, SVG Export Plug-In . SVG Version: 6.00 Build 0)  -->
<!DOCTYPE svg PUBLIC "-//W3C//DTD SVG 1.1//EN" "http://www.w3.org/Graphics/SVG/1.1/DTD/svg11.dtd">
<svg version="1.1" id="Layer_1" xmlns="http://www.w3.org/2000/svg" xmlns:xlink="http://www.w3.org/1999/xlink" x="0px" y="0px"
	 width="128px" height="62px" viewBox="0 0 128 62" enable-background="new 0 0 128 62" xml:space="preserve">
<path fill="#7C529E" d="M65.619,51.3C56.72,51.4,47.02,51.2,37.32,50.6c-1-0.1-1.6,0.4-2.2,1c-2.5,2.801-5,5.601-7.6,8.4
	c-0.4,0.4-0.8,1.2-1.5,0.9c-0.7-0.301-0.4-1.101-0.4-1.7c0-2.3-0.1-4.7,0-7c0.1-1.8-0.3-2.7-2.4-2.7c-2.5-0.1-5.1-0.4-7.6-0.9
	c-8.6-2-14.4-6.699-15.2-16.5c-0.4-4.3-0.7-8.5,0-12.8c1.4-8.8,6.5-13.8,15.3-15.3c12.8-2.1,25.7-2.8,38.6-3
	c13.5-0.2,27,0.2,40.5,0.9c6.5,0.3,13,1.2,19.4,2.5c7.699,1.6,12.898,7.5,13.6,15.5c0.4,4.6,0.5,9.2-0.201,13.8
	c-0.898,6.1-4.299,10.399-9.898,12.899c-4.9,2.101-10.102,2.801-15.301,3.2C90.32,50.7,78.42,51.4,65.619,51.3z"/>
<path fill="#FFFFFF" d="M32.6,38.2c1.8,0,3.9-1.7,4.5-3.4c0.6-1.6-0.6-2.3-1.6-3.1c-0.7-0.6-1.5-1.1-2.2-1.6c-1.5-1.1-2.9-1.1-4,0.6
	c-0.6,1-1.5,1-2.4,0.6c-2.5-1.2-4.5-2.9-5.7-5.5c-0.5-1.1-0.5-2.2,0.7-3c0.6-0.4,1.3-0.9,1.2-1.9c-0.1-1.2-3-5.3-4.2-5.7
	c-0.5-0.2-1-0.2-1.5,0c-2.7,0.9-3.9,3.2-2.8,5.8c3.2,8,9,13.5,16.8,16.9C31.9,38.1,32.4,38.1,32.6,38.2z"/>
<path fill="#FFFFFF" d="M26.8,14.7c-0.4,0.1-1.3-0.3-1.3,0.6c0,0.6,0.7,0.5,1.2,0.6c5.7,0.9,8.4,3.6,9.1,9.4
	c0.1,0.5-0.1,1.3,0.6,1.4c0.8,0,0.6-0.8,0.6-1.3C37.1,19.9,32.3,14.9,26.8,14.7z"/>
<path fill="#FFFFFF" d="M68.3,26.5c0-2.8,0-5.7,0-8.5c0-1.7,0.601-3.1,2.5-3.1c1.8,0,2.3,1.3,2.3,3c0,0.4,0,0.7,0,1.1
	c0,2.6,0,2.6,2.4,1.9c3.3-1,6.5,0.3,8.1,3.3c1.9,3.6,2.101,7.2,0,10.8c-2.1,3.6-6.1,4.7-9.699,2.5C73.3,37.1,73.1,36.9,72.6,37.6
	C71.9,38.6,70.8,38.7,69.7,38.2c-1.101-0.5-1.4-1.5-1.4-2.7C68.3,32.4,68.3,29.5,68.3,26.5z M80.2,29.6c0-2.7-1.5-4.7-3.5-4.8
	C74.6,24.7,73,26.6,73,29.3c0,2.601,1.5,4.7,3.5,4.8C78.6,34.3,80.2,32.3,80.2,29.6z"/>
<path fill="#FFFFFF" d="M50.3,29.7c1.6-4.2,2.9-7.7,4.2-11.3c0.2-0.6,0.4-1.2,0.7-1.8c0.6-1.4,1.6-2.2,3.2-1.6
	c1.7,0.6,1.9,1.9,1.4,3.5c-1.6,4.2-3.3,8.4-4.9,12.7c-0.7,1.8-1.4,3.6-2.1,5.3c-0.4,1-1.1,1.8-2.3,1.9c-1.4,0-2.1-0.801-2.5-2
	c-2.3-5.9-4.7-11.9-7-17.8c-0.6-1.6-0.3-3,1.5-3.6s2.6,0.5,3.2,2C47.1,21,48.6,25,50.3,29.7z"/>
<path fill="#FFFFFF" d="M96.1,31.1c-1.399,0-2.8,0-4.3,0c-1.1,0-1.2,0.5-0.7,1.3C92,34.1,94.6,34.8,96.8,34c0.8-0.3,1.5-0.7,2.3-1.1
	c1.101-0.601,2.101-0.5,2.801,0.6c0.8,1.2,0.3,2.2-0.7,2.9C98,38.6,94.5,39.3,90.9,37.8c-3.5-1.5-5-4.5-5-8.2
	C85.8,24.8,89.1,21,93.4,20.5c4.399-0.4,8.3,2.6,9.1,7.1c0.5,2.5-0.2,3.4-2.8,3.5C98.5,31.1,97.3,31.1,96.1,31.1z M94,27.9
	c0.4,0,0.9,0.1,1.3,0c0.8-0.1,2,0.5,2.2-0.4c0.3-1.2-0.7-2.1-1.7-2.6c-1.399-0.7-2.7-0.6-3.899,0.5c-0.601,0.6-1.301,1.3-1,2.2
	c0.3,0.8,1.199,0.3,1.899,0.4C93.2,28,93.6,27.9,94,27.9z"/>
<path fill="#FFFFFF" d="M32.6,38.2c-0.3-0.101-0.7-0.101-1.2-0.3C23.5,34.5,17.8,29,14.6,21c-1.1-2.7,0-4.9,2.8-5.8
	c0.5-0.2,1-0.2,1.5,0c1.2,0.4,4.1,4.5,4.2,5.7c0.1,0.9-0.6,1.4-1.2,1.9c-1.2,0.8-1.2,1.8-0.7,3c1.2,2.6,3.1,4.4,5.7,5.5
	c0.9,0.4,1.8,0.4,2.4-0.6c1.1-1.7,2.5-1.6,4-0.6c0.8,0.5,1.5,1,2.2,1.6c1,0.8,2.2,1.399,1.6,3.1S34.4,38.2,32.6,38.2z"/>
<path fill="#FFFFFF" d="M104.1,29.3c0-2,0-4,0-6c0-1.1,0.4-1.9,1.4-2.4c1.1-0.5,2.2-0.4,2.9,0.5c0.6,0.9,0.899,0.5,1.399,0
	c0.7-0.6,1.601-0.9,2.601-0.8c1.1,0.2,1.8,0.8,2,1.9c0.199,1.1-0.2,2-1.101,2.2c-4.1,1-4.7,3.8-4.3,7.399
	c0.1,1.301,0.1,2.601-0.1,3.801c-0.2,1.5-1.101,2.399-2.601,2.3c-1.399-0.101-2.1-1.101-2.2-2.5C104.1,33.7,104.1,31.5,104.1,29.3z"
	/>
<path fill="#FFFFFF" d="M61.5,30.1c0-1.9,0-3.8,0-5.7c0-1.6,0.7-2.6,2.4-2.6c1.6,0,2.3,1,2.3,2.5c0,3.8,0,7.601,0,11.5
	c0,1.601-0.8,2.601-2.4,2.601c-1.6-0.101-2.3-1.101-2.3-2.7C61.5,33.8,61.5,32,61.5,30.1z"/>
<path fill="#FFFFFF" d="M26.8,14.7c5.5,0.2,10.3,5.2,10.2,10.7c0,0.5,0.2,1.3-0.6,1.3c-0.8,0-0.6-0.8-0.6-1.4
	c-0.7-5.8-3.4-8.5-9.1-9.4c-0.5-0.1-1.2,0-1.2-0.6C25.6,14.4,26.4,14.8,26.8,14.7z"/>
<path fill="#FFFFFF" d="M66.6,17.6c-0.199,1.5-0.899,2.5-2.5,2.6c-1.5,0.1-2.7-1.1-2.7-2.6s1.3-2.8,2.7-2.7
	C65.5,15.1,66.4,16,66.6,17.6z"/>
<path fill="#FFFFFF" d="M34.2,24.4c-0.1,0.4,0.2,1.1-0.5,1.2c-0.9,0.1-0.7-0.7-0.8-1.2c-0.6-3.5-1.8-4.8-5.4-5.6
	c-0.5-0.1-1.3,0-1.2-0.8c0.1-0.8,0.9-0.5,1.4-0.4C31.3,18,34.2,21,34.2,24.4z"/>
<path fill="#FFFFFF" d="M31.5,23.8c0,0.4,0,0.9-0.6,1c-0.4,0-0.6-0.3-0.7-0.7c-0.1-1.5-0.9-2.3-2.4-2.5c-0.4-0.1-0.9-0.2-0.7-0.8
	c0.1-0.4,0.5-0.4,0.9-0.4C29.7,20.3,31.5,22.1,31.5,23.8z"/>
</svg>
