<?xml version="1.0" encoding="UTF-8" standalone="no"?>
<svg width="630px" height="204px" viewBox="0 0 630 204" version="1.1" xmlns="http://www.w3.org/2000/svg" xmlns:xlink="http://www.w3.org/1999/xlink" xmlns:sketch="http://www.bohemiancoding.com/sketch/ns">
    <!-- Generator: Sketch 3.4.4 (17249) - http://www.bohemiancoding.com/sketch -->
    <title>Rectangle 1 + Page 1</title>
    <desc>Created with Sketch.</desc>
    <defs>
        <path id="path-1" d="M0,0.466925373 L562.742122,0.466925373 L562.742122,131.343284 L0,131.343284 L0,0.466925373 Z"></path>
    </defs>
    <g id="Page-1" stroke="none" stroke-width="1" fill="none" fill-rule="evenodd" sketch:type="MSPage">
        <g id="Rectangle-1-+-Page-1" sketch:type="MSLayerGroup">
            <rect id="Rectangle-1" fill="#44C554" sketch:type="MSShapeGroup" x="0" y="0" width="630" height="204" rx="25"></rect>
            <g id="Page-1" transform="translate(33.000000, 36.000000)">
                <mask id="mask-2" sketch:name="Clip 2" fill="white">
                    <use xlink:href="#path-1"></use>
                </mask>
                <g id="Clip-2"></g>
                <path d="M549.707294,80.1963701 C549.357552,81.9616239 548.755181,83.5009672 547.904776,84.823594 C547.050433,86.1475343 545.934932,87.2238925 544.554335,88.0415045 C543.178332,88.8656836 541.459804,89.2794149 539.405313,89.2794149 C537.40791,89.2794149 535.704474,88.8656836 534.296974,88.0415045 C532.886193,87.2238925 531.758224,86.1475343 530.903882,84.823594 C530.057413,83.5009672 529.437326,81.9616239 529.054118,80.1963701 C528.672879,78.4357134 528.483244,76.6402507 528.483244,74.8237731 C528.483244,72.9363701 528.663693,71.1152955 529.013435,69.3559522 C529.365146,67.5926687 529.968829,66.0362507 530.818579,64.6768478 C531.668984,63.328609 532.786454,62.2272955 534.165082,61.3768478 C535.54043,60.5244299 537.258958,60.0929672 539.317385,60.0929672 C541.31282,60.0929672 542.998539,60.5244299 544.377167,61.3768478 C545.759733,62.2272955 546.887701,63.3404299 547.769603,64.7234746 C548.65413,66.1058627 549.28406,67.6800119 549.664643,69.4406687 C550.049819,71.2059224 550.237486,72.9994149 550.237486,74.8237731 C550.237486,76.6402507 550.058349,78.4357134 549.707294,80.1963701 L549.707294,80.1963701 Z M561.507984,65.8694448 C560.685138,62.9043701 559.424622,60.301803 557.72053,58.0676537 C556.01775,55.8354746 553.878613,54.0406687 551.295243,52.6911164 C548.709249,51.3369672 545.623904,50.6644896 542.043145,50.6644896 C539.228145,50.6644896 536.643463,51.2200716 534.296974,52.3371463 C531.94786,53.4548776 530.009512,55.2477134 528.483244,57.7169672 L528.311982,57.7169672 L528.311982,51.8951761 L516.420083,51.8951761 L516.420083,113.436072 L528.923539,113.436072 L528.923539,91.8373254 L529.100707,91.8373254 C530.626975,94.0721313 532.582383,95.7592358 534.957088,96.9019224 C537.333762,98.0485493 539.934192,98.6251463 542.753129,98.6251463 C546.097008,98.6251463 549.01634,97.9730269 551.515719,96.6832358 C554.007223,95.3927881 556.095179,93.6557731 557.76515,91.4807284 C559.442995,89.3043701 560.685138,86.8095045 561.507984,83.9882507 C562.334768,81.1663403 562.742254,78.2275343 562.742254,75.1724896 C562.742254,71.9401313 562.334768,68.8404299 561.507984,65.8694448 L561.507984,65.8694448 Z M499.868015,80.1963701 C499.512367,81.9616239 498.908684,83.5009672 498.060247,84.823594 C497.209185,86.1475343 496.092371,87.2238925 494.708494,88.0415045 C493.333146,88.8656836 491.613306,89.2794149 489.560128,89.2794149 C487.561412,89.2794149 485.86585,88.8656836 484.456382,88.0415045 C483.044945,87.2238925 481.915664,86.1475343 481.063946,84.823594 C480.212228,83.5009672 479.596078,81.9616239 479.213526,80.1963701 C478.830319,78.4357134 478.644621,76.6402507 478.644621,74.8237731 C478.644621,72.9363701 478.815883,71.1152955 479.167594,69.3559522 C479.524554,67.5926687 480.122332,66.0362507 480.976674,64.6768478 C481.822487,63.328609 482.941269,62.2272955 484.32449,61.3768478 C485.702462,60.5244299 487.414428,60.0929672 489.473512,60.0929672 C491.466979,60.0929672 493.160572,60.5244299 494.536575,61.3768478 C495.915203,62.2272955 497.049078,63.3404299 497.927699,64.7234746 C498.80632,66.1058627 499.436906,67.6800119 499.820114,69.4406687 C500.203977,71.2059224 500.389676,72.9994149 500.389676,74.8237731 C500.389676,76.6402507 500.218413,78.4357134 499.868015,80.1963701 L499.868015,80.1963701 Z M507.877969,58.0676537 C506.177814,55.8354746 504.032771,54.0406687 501.448745,52.6911164 C498.864064,51.3369672 495.783968,50.6644896 492.205178,50.6644896 C489.38296,50.6644896 486.802215,51.2200716 484.456382,52.3371463 C482.101362,53.4548776 480.16892,55.2477134 478.644621,57.7169672 L478.464828,57.7169672 L478.464828,51.8951761 L466.57293,51.8951761 L466.57293,113.436072 L479.086228,113.436072 L479.086228,91.8373254 L479.255522,91.8373254 C480.780477,94.0721313 482.737198,95.7592358 485.116496,96.9019224 C487.489233,98.0485493 490.089007,98.6251463 492.907287,98.6251463 C496.256416,98.6251463 499.175092,97.9730269 501.669221,96.6832358 C504.164663,95.3927881 506.249338,93.6557731 507.921933,91.4807284 C509.59781,89.3043701 510.839953,86.8095045 511.667392,83.9882507 C512.483021,81.1663403 512.899037,78.2275343 512.899037,75.1724896 C512.899037,71.9401313 512.483021,68.8404299 511.667392,65.8694448 C510.839953,62.9043701 509.580749,60.301803 507.877969,58.0676537 L507.877969,58.0676537 Z M425.628131,73.145206 L433.818534,50.0445493 L433.992421,50.0445493 L441.919698,73.145206 L425.628131,73.145206 Z M426.947703,34.5283104 L403.172437,97.4758925 L417.086673,97.4758925 L422.014564,83.4576239 L445.530641,83.4576239 L450.282676,97.4758925 L464.639832,97.4758925 L441.129004,34.5283104 L426.947703,34.5283104 Z M402.11271,77.5084299 C401.291177,76.0689075 400.205203,74.8638328 398.854791,73.8912358 C397.505691,72.925206 395.960393,72.1437134 394.232679,71.5533254 C392.498403,70.9688478 390.723444,70.4730269 388.901896,70.0599522 C387.142029,69.6475343 385.413002,69.2646687 383.709566,68.9113552 C382.007442,68.5567284 380.492329,68.1607284 379.170132,67.7226985 C377.851216,67.2807284 376.783616,66.7113552 375.96077,66.0001313 C375.135955,65.2974448 374.729125,64.3872358 374.729125,63.2688478 C374.729125,62.3284299 374.958131,61.5797731 375.430579,61.0202507 C375.901714,60.4646687 376.474557,60.0371463 377.148451,59.7403104 C377.825625,59.4487284 378.568418,59.2589373 379.392576,59.1676537 C380.21411,59.0809672 380.979869,59.039594 381.682635,59.039594 C383.914949,59.039594 385.852641,59.4644896 387.499645,60.3169075 C389.138776,61.1686687 390.051518,62.7999522 390.224749,65.2081313 L402.11271,65.2081313 C401.878455,62.3888478 401.160597,60.0535642 399.9552,58.1970269 C398.754396,56.3490269 397.239939,54.8635343 395.421672,53.7490866 C393.604717,52.6313552 391.533166,51.8393552 389.210299,51.3684896 C386.892025,50.8969672 384.500916,50.6644896 382.039595,50.6644896 C379.569744,50.6644896 377.160918,50.8851463 374.818366,51.321206 C372.465314,51.7644896 370.352424,52.5315343 368.476413,53.6164299 C366.594497,54.7032955 365.085946,56.1848478 363.938292,58.0676537 C362.791951,59.9478328 362.219108,62.360609 362.219108,65.2974448 C362.219108,67.2951761 362.633812,68.9888478 363.457314,70.3679522 C364.270974,71.7516537 365.362853,72.8923701 366.708016,73.805206 C368.063022,74.7154149 369.604382,75.4529075 371.336033,76.0071761 C373.067685,76.5712955 374.843956,77.0526687 376.660911,77.4657433 C381.127509,78.4074746 384.607216,79.344609 387.099377,80.2889672 C389.595475,81.2267582 390.842868,82.6367284 390.842868,84.5195343 C390.842868,85.6359522 390.581053,86.5573254 390.051518,87.2935045 C389.521327,88.0323104 388.862525,88.6154746 388.070519,89.0567881 C387.273264,89.4994149 386.391362,89.8244896 385.428094,90.0254448 C384.45892,90.2329672 383.531742,90.3367284 382.651808,90.3367284 C381.418195,90.3367284 380.230515,90.1883104 379.08811,89.8960716 C377.940456,89.601206 376.927975,89.1447881 376.048698,88.5281313 C375.168764,87.9114746 374.445001,87.1194746 373.889219,86.1475343 C373.335405,85.1762507 373.049968,84.0204299 373.049968,82.6649672 L361.163319,82.6649672 C361.283399,85.7213254 361.971073,88.2647881 363.236183,90.2914149 C364.492762,92.3193552 366.106301,93.9486687 368.077458,95.1852657 C370.042708,96.4172657 372.291427,97.301206 374.818366,97.8318328 C377.338086,98.3591761 379.922768,98.6251463 382.559944,98.6251463 C385.145282,98.6251463 387.684687,98.3729672 390.182097,97.8771463 C392.676227,97.3760716 394.892793,96.5085493 396.831141,95.2719522 C398.772769,94.0399522 400.335783,92.4099821 401.543805,90.3800716 C402.743953,88.3495045 403.344355,85.8375642 403.344355,82.8396537 C403.344355,80.7204299 402.934244,78.948609 402.11271,77.5084299 L402.11271,77.5084299 Z M350.423011,38.232191 L337.914962,38.232191 L337.914962,51.8951761 L330.344646,51.8951761 L330.344646,60.2696239 L337.914962,60.2696239 L337.914962,87.1608478 C337.914962,89.4567284 338.300794,91.3053851 339.061304,92.7146985 C339.826406,94.1233552 340.866447,95.2174448 342.186676,95.9792358 C343.508216,96.7436537 345.035797,97.2565493 346.768104,97.5205493 C348.494507,97.7832358 350.337708,97.9165493 352.27015,97.9165493 C353.508356,97.9165493 354.766904,97.8856836 356.060885,97.8318328 C357.349617,97.7720716 358.522862,97.6571463 359.581932,97.4758925 L359.581932,87.7768478 C358.992029,87.8970269 358.377191,87.9883104 357.729544,88.0415045 C357.085834,88.1012657 356.409972,88.1327881 355.705237,88.1327881 C353.593659,88.1327881 352.182878,87.7768478 351.476176,87.0728478 C350.776034,86.3688478 350.423011,84.9575642 350.423011,82.8396537 L350.423011,60.2696239 L359.581932,60.2696239 L359.581932,51.8951761 L350.423011,51.8951761 L350.423011,38.232191 Z M314.580646,79.8404299 C314.580646,80.5516537 314.509123,81.4920716 314.360171,82.6649672 C314.213843,83.8444299 313.817512,85.0002507 313.171834,86.1475343 C312.526156,87.2935045 311.524829,88.2818627 310.178354,89.1007881 C308.828597,89.9256239 306.920434,90.3367284 304.45124,90.3367284 C303.456475,90.3367284 302.485989,90.2493851 301.547,90.0687881 C300.606041,89.8960716 299.786476,89.5841313 299.081742,89.1447881 C298.377664,88.7041313 297.818601,88.1012657 297.407178,87.3368478 C296.999036,86.5730866 296.791028,85.6359522 296.791028,84.5195343 C296.791028,83.3446687 296.999036,82.3694448 297.407178,81.6083104 C297.818601,80.8478328 298.362572,80.2134448 299.038434,79.7130269 C299.711016,79.2132657 300.50499,78.8172657 301.414452,78.5204299 C302.324569,78.2275343 303.247155,77.9937433 304.190081,77.8164299 C305.185502,77.6437134 306.186172,77.4920119 307.181593,77.3751164 C308.183575,77.260191 309.136345,77.1091463 310.044494,76.9357731 C310.95658,76.7604299 311.805017,76.5371463 312.599648,76.2718328 C313.39231,76.0071761 314.051111,75.6446687 314.580646,75.1724896 L314.580646,79.8404299 Z M327.084758,87.3368478 L327.084758,63.6234746 C327.084758,60.8567284 326.471233,58.6403104 325.234339,56.9676537 C324.004007,55.2910567 322.41737,53.9848478 320.48296,53.0437731 C318.542644,52.1040119 316.397601,51.4709373 314.051111,51.1484896 C311.703966,50.8253851 309.383723,50.6644896 307.095634,50.6644896 C304.572632,50.6644896 302.06013,50.9120716 299.568625,51.4131463 C297.066622,51.9122507 294.825777,52.7515343 292.828374,53.9244299 C290.831627,55.0999522 289.183966,56.6596537 287.899827,58.5969672 C286.603877,60.5362507 285.870927,62.9759522 285.695072,65.9154149 L298.199184,65.9154149 C298.433439,63.4455045 299.25891,61.6809075 300.669034,60.6242507 C302.077191,59.5656239 304.011601,59.039594 306.480796,59.039594 C307.593672,59.039594 308.634369,59.1131463 309.606167,59.2589373 C310.57206,59.4073552 311.424434,59.6969672 312.159353,60.1402507 C312.894927,60.5809075 313.48155,61.1962507 313.919876,61.992191 C314.360171,62.7848478 314.580646,63.8598925 314.580646,65.2081313 C314.639046,66.5051463 314.255839,67.4843104 313.437586,68.1607284 C312.612771,68.8404299 311.499238,69.3559522 310.08977,69.7040119 C308.680301,70.0599522 307.065449,70.3259224 305.243902,70.4960119 C303.423666,70.6759522 301.575871,70.9156537 299.699205,71.2059224 C297.818601,71.5001313 295.953745,71.8961313 294.108575,72.3958925 C292.258812,72.8923701 290.610495,73.6456239 289.174123,74.6405493 C287.73447,75.6446687 286.561226,76.9804299 285.648483,78.6557134 C284.739678,80.3316537 284.286259,82.4640119 284.286259,85.0475343 C284.286259,87.3972657 284.681278,89.425206 285.47394,91.1280716 C286.265946,92.8368478 287.367011,94.2422209 288.777792,95.3599522 C290.187917,96.4770269 291.830328,97.301206 293.708307,97.8318328 C295.584974,98.3591761 297.611905,98.6251463 299.786476,98.6251463 C302.604101,98.6251463 305.364638,98.2120716 308.060214,97.3931463 C310.763008,96.5637134 313.11409,95.1287881 315.110181,93.0693254 C315.167925,93.8330866 315.270945,94.5843701 315.415304,95.3172657 C315.562944,96.0495045 315.755203,96.773206 315.989459,97.4758925 L328.672051,97.4758925 C328.086085,96.5413851 327.672037,95.1287881 327.43975,93.2446687 C327.201558,91.3651463 327.084758,89.4002507 327.084758,87.3368478 L327.084758,87.3368478 Z M275.566977,55.8177433 C274.335989,54.2009075 272.646989,52.9393552 270.507195,52.0258627 C268.361496,51.119594 265.616707,50.6644896 262.272172,50.6644896 C259.923058,50.6644896 257.516856,51.2647284 255.048318,52.4717731 C252.583716,53.6735642 250.557441,55.6003701 248.97343,58.2469373 L248.70899,58.2469373 L248.70899,34.5283104 L236.203566,34.5283104 L236.203566,97.4758925 L248.70899,97.4758925 L248.70899,73.5845493 C248.70899,68.9415642 249.471468,65.6080716 250.999048,63.5768478 C252.524004,61.5515343 254.989918,60.5362507 258.39679,60.5362507 C261.389614,60.5362507 263.474289,61.4615642 264.648846,63.3154746 C265.823403,65.1647881 266.410025,67.9735642 266.410025,71.732609 L266.410025,97.4758925 L278.916106,97.4758925 L278.916106,69.4406687 C278.916106,66.6213851 278.664134,64.050997 278.166751,61.7249075 C277.6674,59.4073552 276.801247,57.4365493 275.566977,55.8177433 L275.566977,55.8177433 Z M209.520122,77.9057433 L209.346235,77.9057433 L198.602646,34.5283104 L185.656927,34.5283104 L174.735515,77.3751164 L174.560315,77.3751164 L164.608733,34.5283104 L150.784392,34.5283104 L167.42767,97.4758925 L181.431146,97.4758925 L191.908327,54.6284299 L192.084839,54.6284299 L202.739843,97.4758925 L216.478881,97.4758925 L233.38791,34.5283104 L219.826697,34.5283104 L209.520122,77.9057433 Z M94.8859727,78.8960716 C93.2671837,78.0843701 85.3064424,74.1644299 83.8228259,73.6239522 C82.3385531,73.0834746 81.2591417,72.8122507 80.1797303,74.434997 C79.1003189,76.0570866 75.9979133,79.7071164 75.0530182,80.7874149 C74.1087793,81.8703403 73.1645403,82.0056239 71.5450951,81.1952358 C69.9263061,80.3828776 64.7090415,78.6721313 58.5245718,73.1511164 C53.7115124,68.8548776 50.4621231,63.5472955 49.5178841,61.9245493 C48.572989,60.3037731 49.4168329,59.4270567 50.2278678,58.6186388 C50.9562245,57.8929672 51.8466569,56.7253254 52.6563795,55.7803104 C53.4654459,54.8326687 53.7357909,54.1575642 54.2758247,53.0752955 C54.8152023,51.994997 54.5448573,51.0473552 54.1406522,50.2369672 C53.7357909,49.4259224 50.4975566,41.4494448 49.1478002,38.2065791 C47.8341336,35.0464597 46.4994692,35.4733254 45.5053608,35.4247284 C44.5624343,35.3761313 43.4803981,35.3662806 42.4022991,35.3662806 C41.3228876,35.3662806 39.5689261,35.7734448 38.0846534,37.3942209 C36.6010368,39.0163104 32.4179075,42.9369075 32.4179075,50.9120716 C32.4179075,58.8878925 38.2198259,66.593803 39.0295485,67.6767284 C39.8386149,68.7563701 50.4463748,85.1250269 66.6880718,92.1433552 C70.5509867,93.8127284 73.5674331,94.8096239 75.9185159,95.5576239 C79.797179,96.7902806 83.3267559,96.615594 86.116165,96.1992358 C89.2271009,95.7336239 95.6956953,92.2786388 97.0447956,88.4933254 C98.3938958,84.7080119 98.3938958,81.4651463 97.9890345,80.7874149 C97.5848294,80.1123104 96.5054179,79.7071164 94.8859727,78.8960716 L94.8859727,78.8960716 Z M65.344221,119.265743 L65.321911,119.265743 C55.6577338,119.26246 46.1785986,116.662519 37.9094541,111.751594 L35.9428911,110.584609 L15.5587478,115.935534 L20.9997688,96.0455642 L19.718911,94.005803 C14.3277594,85.4231761 11.4806068,75.5034746 11.4845438,65.3197731 C11.496355,35.6000716 35.6574541,11.4210866 65.3652186,11.4210866 C79.7505904,11.4256836 93.2730893,17.040609 103.441867,27.2289075 C113.610644,37.417206 119.207179,50.9606687 119.20193,65.3631164 C119.189462,95.0847881 95.0290193,119.265743 65.344221,119.265743 L65.344221,119.265743 Z M65.3429086,0.467056716 C29.627186,0.467056716 0.558537995,29.5582806 0.544102098,65.3145194 C0.539508858,76.7453254 3.52314639,87.9029373 9.19317319,97.7359522 L0.000131235431,131.343415 L34.3516615,122.326042 C43.8157047,127.49243 54.4713655,130.213863 65.3179739,130.217803 L65.344221,130.217803 C101.056663,130.217803 130.127935,101.124609 130.142371,65.3664 C130.148933,48.039594 123.415243,31.7444896 111.18082,19.4868776 C98.9470531,7.22926567 82.6771406,0.47559403 65.3429086,0.467056716 L65.3429086,0.467056716 Z" id="Fill-1" fill="#FFFFFF" sketch:type="MSShapeGroup" mask="url(#mask-2)"></path>
            </g>
        </g>
    </g>
</svg>